<?xml version="1.0" encoding="UTF-8"?>
<!-- Generator: visioncortex VTracer 0.6.3 -->
<svg version="1.1" xmlns="http://www.w3.org/2000/svg" width="1280" height="1280">
<path d="M0 0 C422.4 0 844.8 0 1280 0 C1280 422.4 1280 844.8 1280 1280 C857.6 1280 435.2 1280 0 1280 C0 857.6 0 435.2 0 0 Z " fill="#EFE7EF" transform="translate(0,0)"/>
<path d="M0 0 C3.02 0.14 3.02 0.14 6.02 2.14 C6.14 4.61 6.05 6.81 5.83 9.26 C5.71 10.92 5.59 12.58 5.48 14.24 C5.4 15.17 5.33 16.11 5.26 17.07 C2.61 51.4 1.39 85.69 2.9 120.1 C3.14 126.44 3.11 132.79 3.02 139.14 C0.89 139.17 -1.23 139.18 -3.36 139.2 C-4.54 139.21 -5.72 139.22 -6.94 139.24 C-9.98 139.14 -9.98 139.14 -11.98 138.14 C-12.59 135.21 -12.59 135.21 -13.09 131.26 C-13.29 129.8 -13.49 128.34 -13.68 126.87 C-13.78 126.1 -13.88 125.33 -13.98 124.53 C-16.01 108.92 -18.55 93.51 -21.98 78.14 C-22.22 77.03 -22.22 77.03 -22.46 75.89 C-25.99 59.51 -34.51 39.71 -48.98 30.14 C-72.8 15.74 -101.13 15.94 -128.04 16.01 C-129.53 16.02 -129.53 16.02 -131.05 16.02 C-166.66 13.74 -166.66 13.74 -198.79 24.64 C-217.02 44.28 -210.14 85.25 -210.12 110.14 C-210.11 114.48 -210.12 118.81 -210.12 123.15 C-210.12 130.4 -210.12 137.65 -210.11 144.9 C-210.11 153.28 -210.11 161.66 -210.11 170.05 C-210.12 177.28 -210.12 184.51 -210.12 191.74 C-210.11 196.05 -210.11 200.35 -210.12 204.66 C-210.12 208.69 -210.12 212.71 -210.11 216.74 C-210.11 218.22 -210.11 219.7 -210.11 221.18 C-210.12 223.19 -210.11 225.2 -210.11 227.21 C-210.11 228.34 -210.11 229.47 -210.11 230.63 C-210.27 233.08 -210.27 233.08 -208.98 234.14 C-207.61 234.29 -206.24 234.37 -204.86 234.43 C-203.99 234.46 -203.11 234.5 -202.21 234.53 C-198.18 234.66 -194.15 234.75 -190.12 234.82 C-188 234.86 -185.88 234.93 -183.76 235.02 C-171.71 236.01 -171.71 236.01 -160.95 231.85 C-158.92 229.03 -157.44 226.28 -155.98 223.14 C-154.59 221.29 -154.59 221.29 -153.25 219.83 C-152.44 218.94 -151.63 218.05 -150.79 217.14 C-139.64 205.15 -127.31 195.49 -111.79 189.89 C-108.76 188.53 -107.34 187.8 -105.74 184.87 C-104.86 181.62 -104.4 178.48 -103.98 175.14 C-103.73 173.48 -103.48 171.82 -103.23 170.15 C-102.82 167.52 -102.43 164.89 -102.07 162.26 C-100.31 149.46 -100.31 149.46 -97.98 147.14 C-95.98 147.04 -93.98 147.01 -91.98 147.01 C-90.89 147.01 -89.8 147.01 -88.67 147.01 C-85.98 147.14 -85.98 147.14 -84.98 148.14 C-84.89 150.43 -84.87 152.72 -84.88 155.02 C-84.89 156.05 -84.89 156.05 -84.89 157.1 C-84.89 159.3 -84.91 161.5 -84.92 163.7 C-84.92 165.19 -84.93 166.68 -84.93 168.17 C-84.94 171.82 -84.96 175.48 -84.98 179.14 C-82.61 179 -80.23 178.85 -77.86 178.7 C-77.19 178.66 -76.53 178.62 -75.84 178.58 C-72.82 178.39 -69.87 178.12 -66.88 177.61 C-52.76 175.3 -35.96 176.04 -21.98 179.14 C-20.85 179.37 -19.72 179.61 -18.56 179.85 C-1.34 183.89 14.16 191.68 28.94 201.27 C37.04 206.45 46.12 211.67 56.02 210.14 C63.75 204.81 64.52 194.34 66.27 185.76 C66.52 184.9 66.76 184.03 67.02 183.14 C69.78 181.76 72.06 182.04 75.14 182.08 C76.24 182.09 77.33 182.09 78.46 182.1 C79.73 182.12 79.73 182.12 81.02 182.14 C81.92 186.58 82 190.44 81.64 194.95 C81.06 203.18 80.76 211.41 80.51 219.65 C80.49 220.35 80.47 221.05 80.45 221.77 C79.89 240.34 79.69 258.91 79.49 277.49 C79.43 282.1 79.38 286.7 79.33 291.31 C79.22 300.25 79.12 309.2 79.02 318.14 C76.73 318.17 74.44 318.18 72.14 318.2 C70.87 318.21 69.59 318.22 68.28 318.24 C65.02 318.14 65.02 318.14 63.02 317.14 C62.52 314.9 62.52 314.9 62.16 311.91 C62.02 310.81 61.87 309.7 61.73 308.57 C61.58 307.37 61.42 306.18 61.27 304.95 C56.35 269.46 42.66 231.56 14.02 208.14 C-7.88 192.26 -35.68 188.49 -61.9 192.37 C-66.29 193.13 -70.53 194.27 -74.79 195.58 C-75.47 195.78 -76.15 195.99 -76.84 196.2 C-80.29 197.33 -82.71 198.29 -84.98 201.14 C-85.48 203.07 -85.48 203.07 -85.49 205.21 C-85.53 206.02 -85.56 206.84 -85.6 207.68 C-85.62 208.53 -85.65 209.39 -85.67 210.26 C-85.7 211.06 -85.74 211.86 -85.77 212.68 C-86.46 230.89 -85.71 249.09 -85.11 267.29 C-85.02 270.08 -84.93 272.86 -84.85 275.65 C-84.43 288.96 -84 302.26 -83.29 315.56 C-82.93 322.42 -82.88 329.26 -82.98 336.14 C-85.62 336.47 -88.26 336.8 -90.98 337.14 C-90.98 337.8 -90.98 338.46 -90.98 339.14 C-89.57 340.39 -89.57 340.39 -87.67 341.62 C-86.94 342.11 -86.2 342.61 -85.45 343.12 C-84.63 343.66 -83.82 344.21 -82.98 344.76 C-82.13 345.33 -81.29 345.91 -80.41 346.49 C-78.57 347.73 -76.72 348.97 -74.88 350.2 C-71.99 352.14 -69.1 354.08 -66.22 356.03 C-52.33 365.38 -38.23 374.35 -23.98 383.14 C-7.09 393.56 9.67 404.06 26.02 415.33 C26.97 415.98 27.93 416.63 28.91 417.31 C34.27 421.02 39.2 424.95 44.01 429.34 C46.65 431.7 49.41 433.74 52.27 435.83 C63.24 444.08 72.38 453.73 80.02 465.14 C80.83 466.28 81.63 467.42 82.44 468.56 C102.72 497.45 108.1 531.8 103.3 566.52 C102.72 569.78 101.93 572.96 101.02 576.14 C100.67 577.37 100.67 577.37 100.32 578.63 C96.93 590.35 92.79 600.95 86.02 611.14 C85.52 611.89 85.03 612.65 84.52 613.43 C63.2 643.08 29.63 658.67 -5.54 664.48 C-42.63 670.07 -84.22 666.6 -117.09 647.25 C-118.98 646.14 -120.89 645.16 -122.86 644.2 C-126.16 642.58 -129.38 640.84 -132.61 639.08 C-133.55 638.57 -134.48 638.06 -135.45 637.53 C-137.36 636.48 -139.24 635.38 -141.11 634.26 C-145.03 632.73 -148.84 632.22 -152.98 633.14 C-160.31 637.67 -161.82 646.33 -163.74 654.28 C-164.2 656.56 -164.63 658.84 -164.98 661.14 C-167.29 661.17 -169.61 661.18 -171.92 661.2 C-173.21 661.21 -174.49 661.22 -175.82 661.24 C-178.98 661.14 -178.98 661.14 -179.98 660.14 C-180.08 658.37 -180.11 656.6 -180.11 654.84 C-180.11 653.03 -180.11 653.03 -180.11 651.2 C-180.11 649.81 -180.1 648.43 -180.1 647.04 C-180.1 646.32 -180.1 645.6 -180.09 644.86 C-180.04 621.69 -179.67 598.51 -179.3 575.34 C-179.18 567.5 -179.06 559.65 -178.96 551.81 C-178.88 546.22 -178.8 540.63 -178.71 535.04 C-178.65 531.72 -178.61 528.41 -178.56 525.09 C-178.52 521.43 -178.46 517.77 -178.39 514.12 C-178.38 513.03 -178.37 511.94 -178.36 510.82 C-178.34 509.83 -178.32 508.84 -178.3 507.82 C-178.29 506.96 -178.27 506.1 -178.26 505.21 C-177.98 503.14 -177.98 503.14 -175.98 501.14 C-173.23 500.87 -173.23 500.87 -169.98 500.89 C-168.91 500.88 -167.84 500.88 -166.73 500.87 C-163.98 501.14 -163.98 501.14 -161.98 503.14 C-161.56 505.59 -161.56 505.59 -161.31 508.69 C-161.2 509.83 -161.1 510.97 -160.99 512.15 C-160.83 514 -160.83 514 -160.67 515.89 C-159.43 528.63 -157.29 540.78 -153.98 553.14 C-153.76 553.98 -153.54 554.83 -153.31 555.7 C-149.85 568.81 -144.94 580.97 -138.98 593.14 C-138.64 593.84 -138.3 594.55 -137.94 595.28 C-133.52 604.26 -128.4 612.42 -121.98 620.14 C-121.42 620.83 -120.85 621.52 -120.27 622.24 C-103.5 640.76 -76.46 650.56 -52.02 652.28 C-22.4 653.68 3.87 645.42 25.92 625.42 C42.52 608.32 44.36 583.3 44.06 560.88 C44.05 559.97 44.03 559.07 44.02 558.14 C44.01 557.42 44 556.7 44 555.96 C43.61 531.05 30.24 510.9 12.91 494.07 C10.01 491.34 7.04 488.73 4.02 486.14 C3.18 485.42 2.35 484.7 1.49 483.96 C-12.49 472.22 -27.52 461.81 -42.98 452.14 C-43.61 451.75 -44.23 451.36 -44.87 450.96 C-47.38 449.39 -49.88 447.82 -52.39 446.26 C-58.87 442.23 -65.3 438.12 -71.73 434.01 C-72.76 433.36 -73.79 432.7 -74.85 432.02 C-85.43 425.25 -95.88 418.28 -106.17 411.08 C-106.99 410.5 -107.82 409.93 -108.67 409.34 C-118.78 402.27 -128.03 394.62 -136.98 386.14 C-137.94 385.24 -138.89 384.34 -139.88 383.41 C-164.38 359.66 -176.58 329.09 -177.27 295.3 C-177.38 282.48 -176.17 270.35 -172.88 257.95 C-172.13 254.76 -171.9 252.37 -171.98 249.14 C-177.23 249.11 -182.48 249.1 -187.73 249.08 C-189.52 249.08 -191.31 249.07 -193.1 249.06 C-195.66 249.05 -198.23 249.05 -200.79 249.04 C-201.59 249.04 -202.4 249.03 -203.23 249.03 C-205.15 249.03 -207.06 249.08 -208.98 249.14 C-210.72 250.88 -210.11 253.28 -210.11 255.65 C-210.11 256.84 -210.11 258.04 -210.12 259.27 C-210.12 260.61 -210.11 261.95 -210.11 263.29 C-210.11 264.69 -210.11 266.09 -210.12 267.49 C-210.12 271.32 -210.12 275.14 -210.12 278.96 C-210.11 282.98 -210.12 287 -210.12 291.02 C-210.12 297.79 -210.12 304.56 -210.11 311.33 C-210.11 319.1 -210.11 326.87 -210.11 334.64 C-210.12 341.34 -210.12 348.04 -210.12 354.74 C-210.11 358.72 -210.11 362.71 -210.12 366.7 C-210.14 387.96 -210.14 387.96 -209.55 409.22 C-209.5 410.56 -209.5 410.56 -209.44 411.92 C-208.85 424.11 -207.72 436.65 -199.26 446.06 C-187.74 456.48 -171.08 456.81 -156.43 457.42 C-154.68 457.5 -154.68 457.5 -152.9 457.58 C-151.86 457.62 -150.81 457.66 -149.74 457.69 C-146.55 458.21 -145.28 458.89 -142.98 461.14 C-142.59 463.62 -142.59 463.62 -142.73 466.33 C-142.77 467.23 -142.8 468.13 -142.84 469.06 C-142.89 469.74 -142.93 470.43 -142.98 471.14 C-166.82 471.16 -190.67 471.18 -214.51 471.19 C-225.58 471.2 -236.65 471.2 -247.72 471.21 C-257.36 471.22 -267.01 471.23 -276.65 471.23 C-281.76 471.23 -286.87 471.24 -291.99 471.24 C-296.79 471.25 -301.59 471.25 -306.4 471.25 C-308.17 471.25 -309.93 471.25 -311.7 471.26 C-314.11 471.26 -316.51 471.26 -318.91 471.26 C-319.98 471.26 -319.98 471.26 -321.06 471.27 C-325.87 471.25 -325.87 471.25 -326.98 470.14 C-327.22 468.18 -327.22 468.18 -327.29 465.76 C-327.33 464.97 -327.37 464.18 -327.41 463.37 C-326.98 461.14 -326.98 461.14 -325.27 459.54 C-322.64 457.93 -321.04 457.7 -317.98 457.55 C-316.54 457.46 -316.54 457.46 -315.06 457.37 C-313.54 457.29 -313.54 457.29 -311.98 457.2 C-300.37 456.37 -288.35 455.19 -279.98 446.14 C-271.36 432.92 -272.83 413.43 -272.85 398.38 C-272.85 396.93 -272.84 395.49 -272.84 394.04 C-272.83 390.11 -272.84 386.17 -272.84 382.23 C-272.84 377.97 -272.83 373.72 -272.83 369.46 C-272.82 361.12 -272.82 352.79 -272.81 344.46 C-272.81 337.68 -272.81 330.91 -272.81 324.13 C-272.8 304.88 -272.8 285.63 -272.8 266.38 C-272.8 264.82 -272.8 264.82 -272.8 263.24 C-272.8 261.68 -272.8 261.68 -272.8 260.09 C-272.8 243.29 -272.79 226.49 -272.77 209.69 C-272.76 192.4 -272.75 175.11 -272.75 157.83 C-272.75 148.14 -272.75 138.45 -272.74 128.75 C-272.73 120.5 -272.73 112.25 -272.74 104 C-272.74 99.79 -272.74 95.59 -272.73 91.39 C-270.6 55.02 -270.6 55.02 -283.98 23.14 C-286.83 21.2 -289.69 20.14 -292.98 19.14 C-294.24 18.73 -294.24 18.73 -295.52 18.31 C-303.01 16.16 -310.58 15.44 -318.3 14.78 C-319.14 14.71 -319.97 14.64 -320.83 14.57 C-321.58 14.51 -322.34 14.45 -323.11 14.39 C-324.98 14.14 -324.98 14.14 -326.98 13.14 C-327.04 11.51 -327.07 9.89 -327.11 8.26 C-327.13 7.36 -327.15 6.45 -327.18 5.52 C-326.98 3.14 -326.98 3.14 -324.98 1.14 C-323.1 0.89 -323.1 0.89 -320.75 0.9 C-319.86 0.89 -318.97 0.89 -318.05 0.89 C-316.57 0.89 -316.57 0.89 -315.06 0.9 C-314.01 0.9 -312.97 0.9 -311.89 0.9 C-308.37 0.9 -304.84 0.91 -301.32 0.93 C-298.8 0.93 -296.28 0.93 -293.76 0.93 C-288.31 0.93 -282.86 0.94 -277.4 0.96 C-269.46 0.98 -261.52 0.99 -253.58 0.99 C-240.62 1 -227.65 1.02 -214.69 1.04 C-213.52 1.04 -213.52 1.04 -212.33 1.05 C-211.17 1.05 -211.17 1.05 -209.98 1.05 C-208.41 1.05 -206.84 1.06 -205.26 1.06 C-204.1 1.06 -204.1 1.06 -202.91 1.06 C-194.38 1.08 -185.85 1.09 -177.32 1.1 C-176.18 1.11 -176.18 1.11 -175.02 1.11 C-162.16 1.13 -149.31 1.14 -136.46 1.15 C-129.28 1.16 -122.1 1.17 -114.92 1.18 C-80.5 1.26 -46.11 1.05 -11.7 0.29 C-9.91 0.25 -8.12 0.22 -6.33 0.19 C-4.22 0.14 -2.11 0.07 0 0 Z " fill="#DA99B2" transform="translate(734.9816150665283,250.86138820648193)"/>
<path d="M0 0 C1.37 0 1.37 0 2.76 0.01 C3.65 -0.01 4.55 -0.02 5.47 -0.04 C10.71 -0.04 14.53 0.28 19.01 3.32 C21.21 5.54 21.92 6.74 22.37 9.83 C22.35 10.69 22.34 11.56 22.32 12.45 C22.32 13.32 22.31 14.18 22.31 15.08 C22.01 17.32 22.01 17.32 20.01 19.32 C20.26 21.89 20.87 23.16 22.54 25.14 C24.3 27.76 24.41 29.25 24.38 32.38 C24.39 33.67 24.39 33.67 24.41 34.98 C23.93 37.8 23.31 38.65 21.01 40.32 C17.63 41.44 14.47 41.44 10.93 41.42 C9.19 41.42 9.19 41.42 7.41 41.41 C6.21 41.4 5 41.39 3.76 41.38 C2.54 41.38 1.31 41.38 0.05 41.37 C-2.96 41.36 -5.98 41.34 -8.99 41.32 C-9.04 35.8 -9.08 30.29 -9.1 24.77 C-9.11 22.89 -9.13 21.01 -9.14 19.14 C-9.17 16.44 -9.18 13.74 -9.19 11.05 C-9.2 10.21 -9.21 9.36 -9.22 8.5 C-9.22 6.44 -9.11 4.38 -8.99 2.32 C-6.14 -0.53 -3.9 0.03 0 0 Z " fill="#DA99B2" transform="translate(486.9921875,968.677734375)"/>
<path d="M0 0 C6.71 1.48 10.42 6.67 14.16 12.19 C24.07 28.31 26.78 46.92 27.69 65.59 C28.04 68.31 28.89 70.5 30 73 C29.01 73.5 29.01 73.5 28 74 C26.3 72.36 24.65 70.69 23 69 C22.32 68.33 21.64 67.66 20.95 66.97 C11.82 57.49 5.65 45.62 2 33 C1.78 32.23 1.55 31.45 1.32 30.65 C-0.98 20.7 -0.17 10.15 0 0 Z " fill="#EFE7EF" transform="translate(608,509)"/>
<path d="M0 0 C4.36 4.61 6.48 9.12 6.69 15.5 C6.41 21.34 4.58 24.72 0.94 29.25 C-4 33.09 -10.89 32.1 -16.75 31.38 C-20.82 30.15 -23.23 27.91 -26.19 24.88 C-28.51 19.68 -28.61 14.97 -27.75 9.38 C-25.93 4.87 -23.15 0.64 -18.75 -1.62 C-11.61 -4.13 -6.56 -3.88 0 0 Z " fill="#EFE7EF" transform="translate(393.75,975.625)"/>
<path d="M0 0 C3.54 -0.09 7.08 -0.14 10.62 -0.19 C11.62 -0.21 12.62 -0.24 13.65 -0.26 C20.55 -0.33 24.96 0.44 30.38 5 C32.85 9.57 32.89 13.92 32 19 C29.75 22.19 29.75 22.19 27 24 C25.68 24 24.36 24 23 24 C24.55 27.99 26.14 31.36 28.69 34.81 C31 38 31 38 31 40 C31.99 40.33 32.98 40.66 34 41 C30.81 40.9 30.81 40.9 27 40 C24.98 37.82 23.59 36.04 22.06 33.56 C21.66 32.96 21.27 32.36 20.86 31.75 C18 27.36 18 27.36 18 25 C15.69 25.14 13.37 25.29 11.06 25.44 C9.77 25.52 8.49 25.6 7.16 25.68 C4.14 25.65 4.14 25.65 3 27 C2.76 29.35 2.59 31.71 2.44 34.06 C2.35 35.35 2.27 36.64 2.18 37.97 C2.12 38.97 2.06 39.97 2 41 C1.01 40.67 0.02 40.34 -1 40 C-1.02 34.62 -1.04 29.25 -1.05 23.87 C-1.06 22.05 -1.07 20.22 -1.08 18.39 C-1.09 15.76 -1.09 13.13 -1.1 10.51 C-1.1 9.69 -1.11 8.87 -1.11 8.02 C-1.11 2.23 -1.11 2.23 0 0 Z " fill="#DA99B2" transform="translate(425,969)"/>
<path d="M0 0 C0.82 0 1.64 0.01 2.48 0.01 C3.29 -0.01 4.1 -0.02 4.93 -0.04 C9.66 -0.04 12.84 0.23 16.67 3.32 C17.83 5.65 17.87 7.17 17.92 9.76 C17.95 10.54 17.97 11.32 18 12.13 C17.59 14.86 16.84 15.67 14.67 17.32 C11.87 18.26 10.15 18.45 7.26 18.46 C5.99 18.46 5.99 18.46 4.7 18.46 C3.82 18.46 2.95 18.45 2.04 18.45 C1.16 18.45 0.28 18.46 -0.63 18.46 C-1.48 18.46 -2.32 18.46 -3.18 18.46 C-3.95 18.45 -4.72 18.45 -5.52 18.45 C-7.33 18.32 -7.33 18.32 -8.33 17.32 C-8.46 14.83 -8.52 12.38 -8.52 9.88 C-8.53 9.19 -8.54 8.5 -8.55 7.78 C-8.56 5.96 -8.45 4.14 -8.33 2.32 C-5.67 -0.34 -3.62 0.03 0 0 Z " fill="#EFE7EF" transform="translate(435.330078125,972.677734375)"/>
<path d="M0 0 C4.16 3.22 7.17 7.44 8.82 12.41 C8.97 14.68 9.05 16.95 9.07 19.22 C9.1 20.43 9.13 21.63 9.15 22.87 C8.65 28.27 6.86 31.4 3.01 35.16 C-2.8 39.26 -8.21 40.17 -15.18 39.41 C-20.89 38.08 -25.09 35.59 -29.18 31.41 C-32.82 25.22 -33.05 19.17 -31.78 12.24 C-29.76 5.49 -24.66 1.52 -18.8 -2.03 C-12.17 -3.45 -5.99 -3.39 0 0 Z M-22.85 4.81 C-27.78 10.52 -28.64 15.13 -28.48 22.5 C-27.9 28 -25.42 30.38 -21.3 33.79 C-15.73 36.63 -9.21 36.35 -3.18 35.41 C0.79 33.46 2.92 30.82 5.26 27.16 C6.67 20.29 6.58 14.27 3.02 8.1 C-0.05 3.76 -3.72 1.63 -8.93 0.54 C-13.92 0.25 -18.98 1.58 -22.85 4.81 Z " fill="#DA99B2" transform="translate(394.17578125,971.58984375)"/>
<path d="M0 0 C2.17 2 3.96 3.7 5.44 6.25 C5.44 7.24 5.44 8.23 5.44 9.25 C3.62 9 3.62 9 1.44 8.25 C0.96 7.61 0.49 6.97 0 6.31 C-2 3.68 -3.39 3.12 -6.56 2.25 C-11.73 1.87 -15.71 2.67 -20.56 4.25 C-20.89 7.22 -21.22 10.19 -21.56 13.25 C-20.18 13.66 -18.8 14.08 -17.38 14.5 C-16.02 14.91 -16.02 14.91 -14.63 15.34 C-12.49 15.97 -10.34 16.58 -8.18 17.16 C3.56 20.45 3.56 20.45 6.44 25.25 C7.11 28.41 7.15 31.09 6.44 34.25 C4.1 37.55 2.56 38.92 -1.31 40.06 C-2.92 40.16 -2.92 40.16 -4.56 40.25 C-5.26 40.3 -5.95 40.35 -6.66 40.4 C-13.78 40.71 -19.03 39.27 -24.62 34.81 C-25.26 33.97 -25.9 33.12 -26.56 32.25 C-26.18 30.09 -26.18 30.09 -25.56 28.25 C-25.13 28.66 -24.69 29.07 -24.24 29.49 C-18.7 34.5 -14.06 36.63 -6.53 36.45 C-3.7 36.16 -1.19 35.3 1.44 34.25 C1.53 32.36 1.53 32.36 1.62 30.44 C1.66 29.73 1.69 29.02 1.73 28.29 C1.35 25.62 0.49 24.97 -1.56 23.25 C-3.58 22.35 -3.58 22.35 -5.84 21.75 C-6.66 21.5 -7.49 21.25 -8.34 21 C-9.19 20.75 -10.05 20.5 -10.94 20.25 C-21.65 17.13 -21.65 17.13 -25.56 14.25 C-26.85 11.6 -26.8 10.05 -25.96 7.25 C-24.36 3.47 -23.03 1.56 -19.56 -0.75 C-13.18 -2.86 -6.02 -2.96 0 0 Z " fill="#DA99B2" transform="translate(884.5625,970.75)"/>
<path d="M0 0 C2.17 2 3.96 3.7 5.44 6.25 C5.44 7.24 5.44 8.23 5.44 9.25 C1.17 8.78 -0.67 6.21 -3.56 3.25 C-8.3 1.67 -12.71 1.73 -17.44 3.31 C-20.95 4.99 -20.95 4.99 -21.5 8.94 C-21.52 10.03 -21.54 11.12 -21.56 12.25 C-16.03 14.6 -10.54 16.57 -4.75 18.19 C3.77 20.8 3.77 20.8 6.44 25.25 C7.11 28.41 7.15 31.09 6.44 34.25 C4.1 37.55 2.56 38.92 -1.31 40.06 C-2.92 40.16 -2.92 40.16 -4.56 40.25 C-5.26 40.3 -5.95 40.35 -6.66 40.4 C-13.78 40.71 -19.03 39.27 -24.62 34.81 C-26.56 32.25 -26.56 32.25 -26.38 29.94 C-26.11 29.38 -25.84 28.82 -25.56 28.25 C-24.9 28.25 -24.24 28.25 -23.56 28.25 C-23.19 29.01 -22.82 29.78 -22.44 30.56 C-19.81 34.34 -16.96 35.24 -12.56 36.25 C-7.55 36.85 -3.26 36.13 1.44 34.25 C1.53 32.36 1.53 32.36 1.62 30.44 C1.66 29.73 1.69 29.02 1.73 28.29 C1.35 25.62 0.49 24.97 -1.56 23.25 C-3.58 22.37 -3.58 22.37 -5.84 21.79 C-6.66 21.54 -7.49 21.3 -8.34 21.05 C-10.06 20.56 -11.79 20.07 -13.52 19.59 C-18.27 18.18 -22.05 16.94 -25.56 13.25 C-26.65 10.84 -26.7 9.76 -26.03 7.21 C-24.27 3.53 -23.03 1.56 -19.56 -0.75 C-13.18 -2.86 -6.02 -2.96 0 0 Z " fill="#DA99B2" transform="translate(688.5625,970.75)"/>
<path d="M0 0 C3.11 2.23 5.56 4.55 7.62 7.81 C7.62 8.8 7.62 9.79 7.62 10.81 C4.68 9.48 2.58 7.98 0.25 5.75 C-2.96 2.98 -5 1.72 -9.38 1.81 C-16.27 3.31 -20.18 5.52 -24.12 11.44 C-26.03 16.57 -26.42 21.64 -24.68 26.91 C-23.22 29.8 -21.46 31.75 -18.94 33.75 C-13.51 35.37 -7.98 35.7 -2.38 34.81 C0.33 33 2.16 31.73 3.62 28.81 C4.95 28.81 6.26 28.81 7.62 28.81 C7.15 33.09 4.82 35.11 1.62 37.81 C-4.47 40.72 -11.21 40.76 -17.56 38.62 C-22.14 36.65 -26.11 34.35 -28.41 29.73 C-31.24 21.99 -30.96 15.75 -27.71 8.18 C-25.14 3.63 -21.48 1.06 -17.06 -1.56 C-10.99 -2.97 -5.49 -3.26 0 0 Z " fill="#DA99B2" transform="translate(585.375,971.1875)"/>
<path d="M0 0 C1.3 0 2.6 0.01 3.95 0.01 C5.33 0.02 6.71 0.03 8.09 0.04 C9.47 0.04 10.86 0.04 12.25 0.05 C15.65 0.06 19.06 0.08 22.46 0.1 C23.12 1.42 23.78 2.74 24.46 4.1 C23.61 4.23 22.75 4.36 21.87 4.5 C20.77 4.68 19.66 4.85 18.52 5.04 C17.42 5.21 16.32 5.38 15.18 5.56 C12.56 5.82 12.56 5.82 11.46 7.1 C11.3 9.62 11.2 12.11 11.14 14.63 C11.12 15.39 11.1 16.14 11.08 16.92 C11.02 19.33 10.96 21.75 10.9 24.16 C10.86 25.79 10.81 27.43 10.77 29.06 C10.66 33.07 10.56 37.09 10.46 41.1 C8.79 41.14 7.13 41.14 5.46 41.1 C3.43 39.07 4.2 34.92 4.14 32.12 C4.12 31.33 4.1 30.53 4.08 29.71 C4.02 27.15 3.96 24.59 3.9 22.04 C3.86 20.31 3.81 18.58 3.77 16.85 C3.66 12.6 3.56 8.35 3.46 4.1 C-0.17 4.1 -3.8 4.1 -7.54 4.1 C-7.87 3.11 -8.2 2.12 -8.54 1.1 C-5.67 -0.34 -3.2 -0.01 0 0 Z " fill="#DA99B2" transform="translate(719.5390625,968.90234375)"/>
<path d="M0 0 C0.8 -0.03 1.6 -0.07 2.42 -0.1 C6.63 -0.14 9.43 0.12 12.79 2.77 C15.25 5.44 15.25 5.44 15.88 8.5 C15.07 12.27 14.42 13.22 11.25 15.44 C7.68 15.96 4.16 15.86 0.56 15.75 C-0.41 15.74 -1.39 15.73 -2.39 15.72 C-9.58 15.61 -9.58 15.61 -10.75 14.44 C-10.88 12.46 -10.93 10.48 -10.94 8.5 C-10.95 7.42 -10.97 6.34 -10.98 5.22 C-10.45 -1.16 -5.08 0.04 0 0 Z " fill="#EFE7EF" transform="translate(492.75,991.5625)"/>
<path d="M0 0 C9.24 0 18.48 0 28 0 C28.33 1.32 28.66 2.64 29 4 C28.25 4.03 27.5 4.05 26.72 4.08 C23.33 4.19 19.95 4.31 16.56 4.44 C15.38 4.48 14.19 4.52 12.97 4.56 C11.29 4.62 11.29 4.62 9.57 4.68 C8.52 4.72 7.48 4.76 6.41 4.79 C4.05 4.74 4.05 4.74 3 6 C2.77 8.02 2.59 10.04 2.44 12.06 C2.29 14.02 2.15 15.98 2 18 C9.26 18.33 16.52 18.66 24 19 C24.33 20.65 24.66 22.3 25 24 C17.74 24 10.48 24 3 24 C2.67 29.61 2.34 35.22 2 41 C1.01 40.67 0.02 40.34 -1 40 C-1.02 34.62 -1.04 29.25 -1.05 23.87 C-1.06 22.05 -1.07 20.22 -1.08 18.39 C-1.09 15.76 -1.09 13.13 -1.1 10.51 C-1.1 9.69 -1.11 8.87 -1.11 8.02 C-1.11 2.23 -1.11 2.23 0 0 Z " fill="#DA99B2" transform="translate(317,969)"/>
<path d="M0 0 C0.71 -0.02 1.42 -0.05 2.16 -0.07 C5.83 -0.09 8.01 0.27 11.17 2.18 C13.19 4.38 13.19 4.38 13.69 7.88 C12.96 12.96 12.96 12.96 10.19 15.38 C6.97 15.91 3.81 15.8 0.56 15.69 C-0.32 15.68 -1.21 15.67 -2.12 15.66 C-8.64 15.54 -8.64 15.54 -9.81 14.38 C-9.94 12.4 -9.99 10.42 -10 8.44 C-10.01 7.36 -10.03 6.27 -10.04 5.16 C-9.54 -0.93 -4.91 0.01 0 0 Z " fill="#EFE7EF" transform="translate(491.8125,972.625)"/>
<path d="M0 0 C1.25 0.01 2.5 0.01 3.79 0.02 C4.79 0.02 4.79 0.02 5.81 0.02 C7.94 0.03 10.07 0.04 12.2 0.05 C13.64 0.06 15.08 0.06 16.52 0.06 C20.06 0.08 23.59 0.09 27.13 0.11 C27.79 1.43 28.45 2.75 29.13 4.11 C28.21 4.17 27.28 4.23 26.32 4.3 C25.13 4.38 23.93 4.46 22.7 4.55 C21.5 4.63 20.31 4.71 19.07 4.8 C16.25 4.79 16.25 4.79 15.13 6.11 C14.97 8.71 14.87 11.27 14.82 13.87 C14.8 14.64 14.77 15.42 14.75 16.22 C14.69 18.7 14.63 21.19 14.57 23.68 C14.53 25.36 14.48 27.04 14.44 28.72 C14.33 32.85 14.23 36.98 14.13 41.11 C12.81 40.78 11.49 40.45 10.13 40.11 C10.11 39.12 10.08 38.14 10.06 37.12 C9.96 33.45 9.86 29.79 9.76 26.12 C9.72 24.54 9.68 22.95 9.64 21.36 C9.58 19.08 9.51 16.81 9.45 14.53 C9.43 13.82 9.42 13.1 9.4 12.37 C9.34 8.62 9.34 8.62 8.13 5.11 C5.32 4.64 5.32 4.64 2.07 4.49 C0.41 4.38 0.41 4.38 -1.28 4.26 C-2.13 4.21 -2.99 4.16 -3.87 4.11 C-3.87 0.15 -3.87 0.15 0 0 Z " fill="#DA99B2" transform="translate(911.867431640625,968.886474609375)"/>
<path d="M0 0 C0.66 0 1.32 0 2 0 C3.55 3.11 3.24 6.43 3.32 9.85 C3.34 10.63 3.36 11.4 3.38 12.2 C3.44 14.67 3.5 17.15 3.56 19.62 C3.61 21.3 3.65 22.98 3.69 24.66 C3.8 28.77 3.9 32.89 4 37 C10.93 37.33 17.86 37.66 25 38 C25.33 38.99 25.66 39.98 26 41 C21.52 41.03 17.04 41.05 12.56 41.06 C11.28 41.07 10 41.08 8.69 41.09 C7.47 41.09 6.26 41.09 5 41.1 C3.88 41.1 2.75 41.11 1.59 41.11 C-1 41 -1 41 -2 40 C-2.11 37.3 -2.16 34.62 -2.17 31.91 C-2.17 31.1 -2.17 30.29 -2.18 29.45 C-2.18 27.73 -2.19 26 -2.19 24.28 C-2.19 21.64 -2.21 19.01 -2.22 16.37 C-2.23 14.7 -2.23 13.02 -2.23 11.35 C-2.24 10.56 -2.24 9.77 -2.25 8.96 C-2.24 5.11 -2.19 3.28 0 0 Z " fill="#DA99B2" transform="translate(790,969)"/>
<path d="M0 0 C0.66 0 1.32 0 2 0 C3.67 3.33 3.12 7.07 3.1 10.73 C3.1 11.59 3.09 12.45 3.09 13.34 C3.09 16.1 3.08 18.86 3.06 21.62 C3.06 23.49 3.05 25.36 3.05 27.23 C3.04 31.82 3.02 36.41 3 41 C1.35 41 -0.3 41 -2 41 C-2.74 30.95 -3.15 21.01 -2.69 10.94 C-2.65 10.08 -2.62 9.21 -2.58 8.33 C-2.25 2.25 -2.25 2.25 0 0 Z " fill="#DA99B2" transform="translate(615,969)"/>
<path d="M0 0 C0.99 0.33 1.98 0.66 3 1 C3 14.2 3 27.4 3 41 C1.68 40.67 0.36 40.34 -1 40 C-1.02 34.62 -1.04 29.25 -1.05 23.87 C-1.06 22.05 -1.07 20.22 -1.08 18.39 C-1.09 15.76 -1.09 13.13 -1.1 10.51 C-1.1 9.69 -1.11 8.87 -1.11 8.02 C-1.11 2.23 -1.11 2.23 0 0 Z " fill="#DA99B2" transform="translate(959,969)"/>
<path d="M0 0 C0.99 0.33 1.98 0.66 3 1 C3 14.2 3 27.4 3 41 C1.68 40.67 0.36 40.34 -1 40 C-1.02 34.62 -1.04 29.25 -1.05 23.87 C-1.06 22.05 -1.07 20.22 -1.08 18.39 C-1.09 15.76 -1.09 13.13 -1.1 10.51 C-1.1 9.69 -1.11 8.87 -1.11 8.02 C-1.11 2.23 -1.11 2.23 0 0 Z " fill="#DA99B2" transform="translate(835,969)"/>
<path d="M0 0 C0.99 0.33 1.98 0.66 3 1 C3 14.2 3 27.4 3 41 C1.68 40.67 0.36 40.34 -1 40 C-1.02 34.62 -1.04 29.25 -1.05 23.87 C-1.06 22.05 -1.07 20.22 -1.08 18.39 C-1.09 15.76 -1.09 13.13 -1.1 10.51 C-1.1 9.69 -1.11 8.87 -1.11 8.02 C-1.11 2.23 -1.11 2.23 0 0 Z " fill="#DA99B2" transform="translate(763,969)"/>
<path d="M0 0 C0.66 0.33 1.32 0.66 2 1 C2 14.2 2 27.4 2 41 C0.68 40.67 -0.64 40.34 -2 40 C-2.05 34.79 -2.09 29.57 -2.11 24.36 C-2.12 22.58 -2.13 20.81 -2.15 19.03 C-2.18 16.49 -2.19 13.94 -2.2 11.39 C-2.21 10.59 -2.22 9.8 -2.23 8.98 C-2.23 5.12 -2.19 3.29 0 0 Z " fill="#DA99B2" transform="translate(533,969)"/>
</svg>
